<svg width="34" height="46" viewBox="0 0 34 46" fill="#000" xmlns="http://www.w3.org/2000/svg">
<path d="M28.2182 24.141C28.2005 20.8438 29.6703 18.3551 32.6453 16.5223C30.9807 14.1055 28.4661 12.7758 25.1458 12.5152C22.0026 12.2637 18.5672 14.375 17.3099 14.375C15.9818 14.375 12.9359 12.6051 10.5453 12.6051C5.60468 12.6859 0.354156 16.6031 0.354156 24.5723C0.354156 26.9262 0.779156 29.3579 1.62916 31.8676C2.76249 35.1648 6.85311 43.2508 11.1208 43.116C13.3521 43.0621 14.9281 41.5078 17.8323 41.5078C20.6479 41.5078 22.1088 43.116 24.5969 43.116C28.9 43.0531 32.601 35.7039 33.6812 32.3977C27.9083 29.6395 28.2182 24.3117 28.2182 24.141ZM23.2068 9.38867C25.624 6.47773 25.4026 3.82734 25.3318 2.875C23.1979 3.00078 20.7276 4.34844 19.3198 6.01055C17.7703 7.78945 16.8583 9.99063 17.0531 12.4703C19.3641 12.65 21.4713 11.4461 23.2068 9.38867Z" fill="#000"/>
</svg>
