<svg width="49" height="49" viewBox="0 0 49 49" fill="#000" xmlns="http://www.w3.org/2000/svg">
<path d="M22.4494 11.0642C23.4735 12.0638 33.4793 22.567 33.4793 22.567C33.7386 22.8172 33.9449 23.1171 34.0857 23.4488C34.2266 23.7805 34.2992 24.1372 34.2992 24.4976C34.2992 24.8579 34.2266 25.2146 34.0857 25.5463C33.9449 25.878 33.7386 26.1779 33.4793 26.4282C33.4793 26.4282 23.4735 36.9362 22.4494 37.9309C21.4253 38.9305 19.5829 38.9991 18.4926 37.9309C17.3999 36.8676 17.3142 35.3805 18.4926 34.0746L27.6728 24.5L18.4926 14.9254C17.3142 13.6196 17.3999 12.13 18.4926 11.0642C19.5829 9.996 21.4253 10.0622 22.4494 11.0642Z" fill="#000"/>
</svg>
