<svg width="38" height="38" viewBox="0 0 38 38" fill="#000" xmlns="http://www.w3.org/2000/svg">
<path d="M8.58049 14.3412C9.40889 13.4938 10.5622 13.4273 11.5749 14.3412L19.0001 21.4605L26.4253 14.3412C27.438 13.4273 28.5932 13.4938 29.4159 14.3412C30.2443 15.1867 30.1911 16.6155 29.4159 17.4097C28.6445 18.2039 20.4954 25.9635 20.4954 25.9635C20.3013 26.1646 20.0687 26.3246 19.8115 26.4338C19.5543 26.5431 19.2777 26.5994 18.9982 26.5994C18.7187 26.5994 18.4421 26.5431 18.1849 26.4338C17.9276 26.3246 17.695 26.1646 17.501 25.9635C17.501 25.9635 9.35569 18.2039 8.58049 17.4097C7.80339 16.6155 7.75209 15.1867 8.58049 14.3412Z" fill="#000"/>
</svg>
