<svg width="29" height="28" viewBox="0 0 29 28" fill="#000" xmlns="http://www.w3.org/2000/svg">
<path fill-rule="evenodd" clip-rule="evenodd" d="M2.76953 11.0216C2.76953 6.96975 6.11299 3.62842 10.3083 3.62842C11.8622 3.62842 13.3038 4.09042 14.5 4.87558C15.6963 4.09042 17.1378 3.62842 18.6917 3.62842C22.8871 3.62842 26.2305 6.96975 26.2305 11.0216C26.2305 12.8183 25.5744 14.4726 24.4797 15.7571L24.4422 15.8026L19.2911 21.0386L16.8382 18.7893L21.9023 13.6408C22.4907 12.9303 22.846 12.0214 22.846 11.0216C22.846 8.71158 20.9537 6.89508 18.6917 6.89508C17.5342 6.89508 16.4841 7.36292 15.7241 8.13292L14.5 9.37192L13.276 8.13292C12.5159 7.36292 11.4659 6.89508 10.3083 6.89508C8.04632 6.89508 6.15286 8.71158 6.15286 11.0216C6.15286 12.0214 6.50932 12.9303 7.09778 13.6408L12.1522 18.7799L16.6883 23.2471L14.2717 25.5337L9.71745 21.0479L4.55786 15.8026L4.52041 15.7571C3.42566 14.4726 2.76953 12.8183 2.76953 11.0216Z" />
</svg>
