<svg width="1116" height="424" viewBox="0 0 1116 424" fill="#000" xmlns="http://www.w3.org/2000/svg">
<path d="M294.065 161.833C288.447 164.885 282.622 167.536 276.631 169.768C263.701 174.426 250.331 176.839 236.653 177.742C233.693 177.93 230.728 178.133 227.758 178.186C226.273 178.186 225.719 178.774 225.829 180.203C225.892 180.922 225.829 181.651 225.829 182.37V307.748C225.829 311.3 225.829 311.305 222.296 311.305C207.195 311.305 192.095 311.252 176.975 311.363C174.512 311.363 173.895 310.648 173.899 308.235C173.967 266.124 173.983 224.012 173.948 181.897C173.948 178.475 173.948 178.451 170.5 178.466C147.768 178.582 125.036 178.118 102.313 178.741C94.594 178.918 86.9582 180.375 79.7153 183.051C65.4251 188.423 57.6723 199.196 54.2685 213.671C52.4799 221.312 52.017 229.088 51.983 236.878C51.8869 260.586 51.9494 284.295 51.9447 308.003C51.9447 311.295 51.9447 311.305 48.6518 311.305C33.4694 311.305 18.2775 311.257 3.10973 311.363C0.646053 311.363 0 310.629 0 308.216C0.0578555 208.075 0.075534 107.935 0.0530345 7.7952C0.0530345 4.59996 0.0530335 4.56136 3.25919 4.56136C18.4431 4.56136 33.6238 4.56136 48.8011 4.56136C51.9397 4.56136 51.9447 4.59031 51.9447 7.82417C51.9447 52.593 51.9447 97.3587 51.9447 142.121V144.92C52.8752 145.442 53.2705 144.742 53.7431 144.404C67.3052 134.751 82.507 129.335 98.851 126.811C108.012 125.401 117.201 124.967 126.438 124.977C141.14 124.999 155.84 124.999 170.539 124.977C173.977 124.977 173.981 124.977 173.981 121.598V8.29718C173.981 4.56618 173.981 4.55652 177.592 4.55652C192.609 4.55652 207.629 4.55652 222.652 4.55652C225.834 4.55652 225.844 4.55652 225.844 7.77107V121.574C225.844 124.977 225.844 125.006 229.248 124.952C238.958 124.861 248.658 125.088 258.354 124.026C278.541 121.82 293.159 111.79 302.04 93.5456C303.211 91.1321 304.248 90.9342 306.586 91.8563C318.904 96.7068 331.286 101.408 343.681 106.066C345.587 106.78 346.407 107.649 346.4 109.835C346.336 175.98 346.336 242.123 346.4 308.264C346.4 310.754 345.654 311.353 343.271 311.339C328.089 311.237 312.897 311.29 297.729 311.285C294.494 311.285 294.485 311.285 294.485 307.907C294.485 260.329 294.485 212.751 294.485 165.173C294.48 164.188 294.726 163.131 294.065 161.833Z" fill="#000"/>
<path d="M803.711 293.91C803.022 293.731 802.662 294.248 802.262 294.581C786.716 306.922 768.997 313.723 749.229 315.234C728.337 316.832 708.216 313.762 689.281 304.577C662.349 291.506 645.387 269.931 636.782 241.517C631.877 225.28 630.556 208.637 631.793 191.725C633.161 172.939 637.861 155.172 647.602 138.95C662.635 113.924 684.897 98.9998 713.117 92.6141C722.835 90.4116 732.791 89.4498 742.748 89.752C767.898 90.5048 789.906 99.0675 808.32 116.453C808.777 116.892 809.261 117.302 809.923 117.901C811.066 115.13 811.083 112.317 811.573 109.623C812.384 105.207 813.019 100.762 813.658 96.3114C813.93 94.3808 814.619 93.4638 816.848 93.483C829.214 93.6085 841.581 93.589 853.971 93.483C856.15 93.483 856.866 94.0863 856.866 96.3211C856.926 170.898 857.346 245.465 857.034 320.046C856.909 351.705 844.979 378.566 820.28 399.053C806.78 410.256 791.055 416.989 773.972 420.476C750.526 425.258 727.057 425.635 703.957 418.726C672.564 409.34 649.602 389.849 635.646 360.02C634.506 357.533 633.595 354.949 632.919 352.297C632.573 350.988 632.919 350.261 634.368 349.884C648.829 345.91 663.28 341.889 677.714 337.817C678.877 337.49 679.479 337.672 679.835 338.917C684.316 354.589 695.052 364.664 709.386 371.223C720.408 376.267 732.143 377.576 744.197 376.782C754.614 376.099 764.745 374.265 774.228 369.756C792.753 360.952 803.069 346.408 803.99 325.77C804.434 315.741 804.138 305.682 804.161 295.638C804.104 295.092 804.289 294.397 803.711 293.91ZM805.449 200.755C805.57 197.184 805.022 191.84 803.899 186.565C799.829 167.509 789.684 153.005 771.75 144.679C758.732 138.636 744.963 137.627 731.013 140.171C711.93 143.656 697.547 153.922 689.321 171.67C680.83 189.982 680.444 208.999 686.971 227.963C692.807 244.91 704.444 256.527 721.372 262.604C731.679 266.306 742.348 267.04 753.192 265.727C770.597 263.618 784.749 255.837 794.709 241.179C802.561 229.58 805.456 216.476 805.456 200.775L805.449 200.755Z" fill="#000"/>
<path d="M945.167 221.158C946.303 226.53 948.33 231.674 951.164 236.376C960.354 251.923 974.123 261.059 991.663 264.289C1008.54 267.397 1025.1 266.166 1040.84 258.834C1050.07 254.539 1057.67 247.974 1064.72 240.73C1065.38 240.054 1065.89 239.19 1067.05 238.828L1100.75 273.44C1101.34 273.686 1100.75 274.077 1100.33 274.526C1083.33 292.515 1063.34 305.479 1038.92 310.938C1023.54 314.346 1007.74 315.462 992.036 314.249C974.385 312.951 957.776 308.202 942.586 299.021C918.555 284.488 903.674 263.116 896.436 236.202C893.088 223.607 891.66 210.578 892.201 197.555C893.092 173.596 899.173 151.219 913.62 131.705C928.568 111.482 948.697 98.937 972.99 93.2222C997.7 87.4304 1022.3 88.3955 1046.27 96.8519C1081.16 109.141 1102.88 133.781 1112.02 169.474C1116.13 185.484 1117.18 201.764 1114.59 218.199C1114.22 220.516 1113.42 221.206 1111.09 221.201C1056.95 221.137 1002.81 221.122 948.677 221.158H945.167ZM946.337 178.756H1061.38C1061.79 178.036 1061.47 177.597 1061.32 177.163C1055.95 162.041 1046.23 150.799 1031.58 144.071C1019.63 138.578 1007.02 137.478 994.127 139.133C979.558 140.997 967.127 147.16 957.483 158.387C952.371 164.316 948.572 171.263 946.337 178.77V178.756Z" fill="#000"/>
<path d="M448.285 115.879C449.896 114.431 451.523 112.92 453.21 111.477C466.447 100.125 481.527 92.3294 498.902 90.4325C524.711 87.6138 547.569 94.7766 566.242 113.311C580.575 127.535 588.327 145.21 592.122 164.811C593.937 174.156 594.364 183.606 594.364 193.096C594.364 231.181 594.364 269.27 594.364 307.362C594.364 311.305 594.364 311.31 590.441 311.31H545.603C541.898 311.31 541.888 311.31 541.888 307.646C541.888 269.957 541.888 232.269 541.888 194.582C541.888 185.716 541.32 176.941 538.769 168.378C533.629 151.128 520.372 140.529 502.455 139.066C494.949 138.458 487.51 138.496 480.216 140.282C465.231 143.936 456.225 153.768 451.832 168.243C449.21 176.878 448.712 185.749 448.712 194.688C448.712 232.14 448.712 269.587 448.712 307.029C448.712 312.338 448.497 311.286 444.373 311.296C429.519 311.339 414.661 311.296 399.8 311.296C396.644 311.296 396.634 311.296 396.634 308.081C396.634 237.686 396.634 167.292 396.634 96.9004C396.634 93.5698 396.634 93.5604 399.921 93.5604H441.603C445.19 93.5604 445.139 93.5604 445.516 97.0646C446.154 102.967 446.853 108.861 447.526 114.759C447.536 114.998 447.613 115.229 447.744 115.427C447.879 115.625 448.067 115.781 448.285 115.879Z" fill="#000"/>
<path d="M291.573 31.1564C291.626 13.7177 305.588 -0.0769038 323.118 0.000322669C340.306 0.0727225 354.115 14.181 354.047 31.557C353.99 39.8508 350.646 47.7828 344.75 53.608C338.854 59.4334 330.885 62.6744 322.6 62.6189C314.315 62.5631 306.392 59.215 300.574 53.3112C294.755 47.4073 291.517 39.4308 291.573 31.1371V31.1564Z" />
</svg>
