<svg xmlns="http://www.w3.org/2000/svg" width="24" height="24" viewBox="0 0 24 24" fill="#000" >
<path fill-rule="evenodd" clip-rule="evenodd" d="M3.81251 0.417175H0.552856V20.7258H3.81251V15.2817C3.83135 13.8907 4.47479 12.5819 6.04821 12.2462C8.14296 11.9784 10.2543 11.8616 12.3654 11.8963V20.7258H15.625V11.9743C16.2349 11.9826 16.771 11.9818 17.2093 11.9634C20.6503 11.8238 22.4605 8.67449 22.5836 8.46032C22.5853 8.4574 22.5867 8.45503 22.5877 8.45322L19.7192 6.92316C19.7159 6.9251 19.7028 6.9446 19.6801 6.97817C19.4782 7.27775 18.521 8.69756 17.0789 8.75537C16.6971 8.77043 16.1967 8.76292 15.625 8.75067V0.417175H12.3654V8.68818C8.90407 8.60469 6.35768 8.6125 4.88125 9.03181C4.51215 9.12695 4.15438 9.25642 3.81251 9.41783V0.417175Z"  />
</svg>
