<svg width="28" height="28" viewBox="0 0 28 28" fill="none" xmlns="http://www.w3.org/2000/svg" fill="#000">
<path d="M8.51784 6.4459C7.34301 6.4459 6.24167 7.48073 6.24167 8.9449V16.7592H3.09167V8.9449C3.09167 5.9104 5.43901 3.2959 8.51784 3.2959H19.481C22.561 3.2959 24.9083 5.9104 24.9083 8.9449V14.6744C24.9083 17.7101 22.561 20.3234 19.481 20.3234H11.4812C11.0017 20.3234 9.61101 20.3362 8.37434 20.9184C7.78284 21.1972 7.26951 21.5881 6.90084 22.1387C6.53567 22.6824 6.24167 23.4827 6.24167 24.7042H3.09167C3.09167 22.9472 3.52567 21.5157 4.28401 20.3841C5.03884 19.2594 6.04451 18.5337 7.03267 18.0682C8.93317 17.1734 10.9235 17.1734 11.4625 17.1734H19.481C20.657 17.1734 21.7583 16.1397 21.7583 14.6744V8.9449C21.7583 7.48073 20.657 6.4459 19.481 6.4459H8.51784Z"/>
</svg>
