<svg xmlns="http://www.w3.org/2000/svg" width="24" height="24" viewBox="0 0 24 24" fill="#000" >
<path fill-rule="evenodd" clip-rule="evenodd" d="M3.95639 9.91714C3.5359 9.46021 3.19588 8.933 2.95407 8.35683C2.54077 7.37204 2.43294 6.2885 2.64426 5.24328C2.85559 4.19806 3.37658 3.23813 4.14127 2.48495C4.90596 1.73177 5.88 1.21918 6.94018 1.01204C8.00036 0.804892 9.09901 0.912498 10.0972 1.32124C11.0953 1.72998 11.9481 2.42149 12.5476 3.30829C13.1471 4.19508 13.4664 5.2373 13.4652 6.30309C13.4635 7.6522 12.9488 8.94858 12.0278 9.93853C14.1387 11.1378 15.597 13.2113 15.597 15.4642C15.597 17.3093 16.0664 17.9393 17.5528 18.0357V21.2823C13.2631 21.0573 12.3374 18.0679 12.3374 15.4963C12.3374 13.9599 10.4011 12.1148 8.002 12.1148C5.83759 12.1148 3.43849 13.677 3.43849 15.9206V21.488L0.178833 22.9602V15.8885C0.178833 13.4015 1.7127 11.1671 3.95639 9.91714ZM6.77779 4.49636C7.14016 4.25759 7.56617 4.13015 8.00199 4.13015C8.5864 4.13015 9.14687 4.35908 9.56011 4.76659C9.97335 5.17409 10.2055 5.72679 10.2055 6.30309C10.2055 6.73286 10.0763 7.15298 9.83415 7.51032C9.59202 7.86765 9.24787 8.14616 8.84523 8.31063C8.44259 8.4751 7.99953 8.51813 7.57209 8.43428C7.14465 8.35044 6.75204 8.14349 6.44387 7.8396C6.1357 7.5357 5.92583 7.14852 5.8408 6.72701C5.75578 6.3055 5.7994 5.8686 5.96618 5.47154C6.13296 5.07449 6.41542 4.73512 6.77779 4.49636Z" />
</svg>
