<svg width="54" height="54" viewBox="0 0 79 79" fill="none" xmlns="http://www.w3.org/2000/svg">
<path d="M57.8593 47.2654L49.1091 43.5154C48.7353 43.356 48.3199 43.3225 47.9254 43.4197C47.5308 43.5169 47.1786 43.7397 46.9216 44.0544L43.0465 48.7889C36.965 45.9215 32.0707 41.0272 29.2033 34.9457L33.9378 31.0706C34.2531 30.8141 34.4764 30.4618 34.5736 30.0671C34.6709 29.6724 34.6369 29.2567 34.4768 28.8831L30.7268 20.1329C30.5511 19.7301 30.2403 19.4012 29.8481 19.203C29.4559 19.0047 29.0068 18.9495 28.5783 19.0469L20.4532 20.922C20.04 21.0174 19.6714 21.25 19.4075 21.5819C19.1435 21.9138 18.9999 22.3253 19 22.7494C19 42.7888 35.2425 59 55.2506 59C55.6748 59.0003 56.0865 58.8567 56.4186 58.5928C56.7506 58.3289 56.9833 57.9601 57.0788 57.5469L58.9538 49.4217C59.0506 48.9911 58.9942 48.5402 58.7945 48.1466C58.5947 47.7531 58.264 47.4415 57.8593 47.2654Z" fill="black"/>
<circle cx="39.5" cy="39.5" r="37" stroke="black" stroke-width="5"/>
</svg>
