<svg xmlns="http://www.w3.org/2000/svg" width="24" height="24" viewBox="0 0 24 24" fill="#000" >
<path fill-rule="evenodd" clip-rule="evenodd" d="M18.122 23.5102C17.8733 23.5077 17.6284 23.4506 17.4049 23.3431L12.4502 20.7715L6.58281 23.6516C6.31714 23.7835 6.01992 23.8412 5.72338 23.8185C5.42683 23.7957 5.14226 23.6933 4.9005 23.5225C4.65873 23.3516 4.46899 23.1188 4.35183 22.8492C4.23467 22.5796 4.19456 22.2835 4.23585 21.993L5.21375 15.172L0.989235 10.8197C0.789179 10.6127 0.648757 10.3568 0.582464 10.0784C0.516171 9.79996 0.526404 9.50916 0.612108 9.23597C0.697812 8.96277 0.855882 8.71707 1.07001 8.52422C1.28414 8.33136 1.54657 8.19834 1.83022 8.13888L7.74325 6.8724L10.9573 1.39504C11.1011 1.15068 11.3075 0.947848 11.5557 0.806823C11.804 0.665798 12.0855 0.591524 12.372 0.591431C12.6581 0.592652 12.9389 0.668157 13.1861 0.810351C13.4333 0.952546 13.6382 1.15642 13.7801 1.40146L17.1702 7.21955L22.855 7.86244C23.1463 7.89636 23.4228 8.00714 23.6556 8.18311C23.8883 8.35908 24.0686 8.59372 24.1774 8.86228C24.2862 9.13084 24.3195 9.42338 24.2738 9.70904C24.2281 9.99471 24.105 10.2629 23.9177 10.4854L18.8261 16.6314L16.0097 14.9727L19.478 10.7233L15.9771 10.3183C15.7235 10.2902 15.4803 10.2033 15.2673 10.0648C15.0542 9.92621 14.8775 9.7399 14.7515 9.52108L12.3654 5.41948L10.201 9.09677C10.0882 9.29253 9.93453 9.46248 9.75025 9.59545C9.56597 9.72842 9.35522 9.82139 9.13186 9.86823L5.37673 10.6525L8.10181 13.4877C8.27133 13.6642 8.39857 13.8759 8.47416 14.1074C8.54975 14.3388 8.57177 14.584 8.5386 14.8249L7.88667 19.3829L11.7135 17.5121C11.9397 17.4026 12.1884 17.3456 12.4404 17.3456C12.6924 17.3456 12.9411 17.4026 13.1673 17.5121L20.8536 21.6008C20.7231 22.1984 20.3701 22.726 19.8644 23.0795C19.3587 23.433 18.737 23.5867 18.122 23.5102Z"  />
</svg>
